<?xml version="1.0" encoding="UTF-8"?>
<!-- Generated by Pixelmator Pro 3.8 -->
<svg width="648" height="614" viewBox="0 0 648 614" xmlns="http://www.w3.org/2000/svg">
    <g id="Group">
        <path id="Path" fill="#fb6d01" stroke="none" d="M 51.929993 248.609985 C 51.902435 248.448608 51.962738 248.284668 52.088379 248.179626 C 52.21402 248.074585 52.386017 248.04425 52.540009 248.099976 C 55.640015 249.23999 59.519989 249.609985 63.299988 250.960022 C 72.670013 254.309998 78.5 256.469971 85.970001 258.940002 C 89.196665 260.006653 92.190002 261.213318 94.950012 262.559998 C 106.92334 268.379985 113.323334 271.483317 114.149994 271.869995 C 119.350006 274.289998 124.33667 277.036662 129.109985 280.109985 C 135.660004 284.320007 145.339996 290.070007 153.100006 296.140015 C 155.84667 298.286662 158.940002 300.699992 162.380005 303.380005 C 165.906677 306.133341 170.593343 310.300008 176.440002 315.880005 C 190.140015 328.960022 201.859985 343.400024 212.919983 359.309998 C 215.599996 363.156677 217.943339 366.783346 219.950012 370.190002 C 223.01001 375.400024 225.830017 379.5 228.940002 384.969971 C 239.306661 403.236654 248.556661 422.210002 256.690002 441.890015 C 256.763672 442.060974 256.92865 442.17572 257.113037 442.184326 C 257.297424 442.192871 257.467834 442.093689 257.549988 441.929993 C 262.559998 432.289978 267.159973 422.179993 271.659973 413.179993 C 280.546651 395.419983 286.113322 384.216654 288.359985 379.570007 C 293 369.98999 297.679993 360.390015 302.5 350.960022 C 305.286662 345.506694 307.513326 340.966695 309.179993 337.340027 C 311.849976 331.530029 315.059998 325.909973 318.190002 319.210022 C 321.216654 312.75002 325.009989 305.146688 329.570007 296.400024 C 331.26001 293.159973 332.929993 289.25 334.460022 286.169983 C 356.820007 241.016663 380.906657 192.676676 406.719971 141.150024 C 417.23999 120.150024 427.190002 101.200012 437.409973 82.650024 C 441.556661 75.116659 444.403341 69.843302 445.950012 66.829956 C 449.75002 59.423299 452.686686 54.206645 454.76001 51.179993 C 460.539998 42.726664 466.41333 35.869995 472.380005 30.609985 C 483.5 20.789998 495.793335 13.373332 509.26001 8.359985 C 523.56665 3.039998 537.709981 0.716675 551.690002 1.390015 C 567.703349 2.16333 582.740011 6.696655 596.799988 14.98999 C 621.053324 29.283325 637.003337 50.713338 644.650024 79.280029 C 644.850016 80.040039 645.300008 82.92336 646 87.929993 C 648.5 105.75 645.440002 124.52002 638.640015 141.640015 C 636.466675 147.126668 634.889994 150.710002 633.909973 152.390015 C 631.403341 156.683309 625.993347 166.279968 617.679993 181.179993 C 606.52002 201.190002 594 222.830017 582.460022 243.51001 C 544.409973 311.710022 507.52002 376.530029 484.530029 418.25 C 473.090007 438.98999 464.876668 453.786662 459.890015 462.640015 C 434.896688 506.986654 420.290019 533.043315 416.070007 540.809998 C 408.370015 554.969991 402.390015 564.643331 398.130005 569.830017 C 386.416667 584.089986 372.766663 594.786641 357.179993 601.919983 C 320.710022 618.599976 278.27002 614.719971 245.799988 590.929993 C 240.940002 587.376648 237.233337 584.339986 234.679993 581.820007 C 225.873311 573.139994 218.759989 563.689982 213.340027 553.469971 C 182.41335 495.149984 148.120005 430.599996 110.459991 359.820007 C 108.553335 356.240011 106.573334 352.513346 104.519989 348.640015 C 88.593333 318.626668 78.313334 299.179993 73.679993 290.299988 C 71.606669 286.320007 70.193339 283.603353 69.440002 282.150024 C 64.153341 271.956665 58.626668 261.533325 52.859985 250.880005 C 52.333333 249.906657 52.023336 249.149984 51.929993 248.609985 Z"/>
        <path id="path1" fill="#fb6d01" stroke="none" d="M 256.390015 373.960022 C 256.333069 374.065674 256.220337 374.128967 256.100464 374.122559 C 255.980652 374.11615 255.875305 374.041138 255.830017 373.929993 C 251.796692 363.950012 246.860026 354.463338 241.02002 345.469971 C 236.369995 338.299988 233.940002 334.22998 229.700012 328.719971 C 207.070007 299.289978 176.970001 277.26001 143.619995 261.169983 C 133.953328 256.509989 126.179993 252.896667 120.299988 250.330017 C 114.446655 247.769999 108.969991 244.956665 103.869995 241.890015 C 94.320007 236.159973 85.829987 231.150024 78.140015 224.619995 C 73.980011 221.090027 69.51001 217.859985 65.570007 214.090027 C 49.33667 198.503357 36.57667 181.530029 27.290009 163.170044 C 16.856679 142.529989 9.766673 120.546631 6.019989 97.219971 C 4.093333 85.26001 2.743337 73.266683 1.970001 61.23999 C 0.756663 42.340007 0.123332 28.826681 0.070007 20.700012 C 0.036662 16.700012 1.549988 13.736674 4.609985 11.809998 C 6.376668 10.696676 9.716675 10.196676 14.630005 10.309998 C 17.889994 10.383362 23.346659 10.3467 31 10.200012 C 47.5 9.890015 64.350006 10.02002 80.609985 12.290039 C 105.096659 15.703369 128.200002 22.443359 149.920013 32.51001 C 162.293345 38.243327 174.566671 45.609985 186.73999 54.609985 C 214.340027 75.040039 239.789978 101.849976 257.039978 131.150024 C 277.366679 165.689982 288.320028 202.893311 289.900024 242.76001 C 290.146688 249.08667 290.09668 255.25 289.75 261.25 C 288.07666 290.390015 281.690002 317.930013 270.590027 343.869995 C 265.51001 355.75 261.98999 363.26001 256.390015 373.960022 Z"/>
    </g>
</svg>
